<?xml version="1.0" encoding="UTF-8"?>
<svg version="1.1" xmlns="http://www.w3.org/2000/svg" width="82" height="72">
<path d="M0 0 C27.06 0 54.12 0 82 0 C82 23.76 82 47.52 82 72 C54.94 72 27.88 72 0 72 C0 48.24 0 24.48 0 0 Z " fill="#ABB679" transform="translate(0,0)"/>
<path d="M0 0 C27.06 0 54.12 0 82 0 C82 23.76 82 47.52 82 72 C54.94 72 27.88 72 0 72 C0 48.24 0 24.48 0 0 Z M77 3 C75.07463062 4.60558484 74.08925833 5.47769478 73.65942383 7.99291992 C73.67513428 8.73131104 73.69084473 9.46970215 73.70703125 10.23046875 C73.71669922 11.03291016 73.72636719 11.83535156 73.73632812 12.66210938 C73.76146484 13.49548828 73.78660156 14.32886719 73.8125 15.1875 C73.82603516 16.03248047 73.83957031 16.87746094 73.85351562 17.74804688 C73.88884201 19.83230384 73.94264861 21.91623277 74 24 C71.60095141 25.1995243 69.67479327 25.73904456 67 26 C65.1875 24.5625 65.1875 24.5625 64 23 C64 23.99 64 24.98 64 26 C61.36 26 58.72 26 56 26 C56 26.66 56 27.32 56 28 C51.71 28 47.42 28 43 28 C43 32.29 43 36.58 43 41 C44.65 41.66 46.3 42.32 48 43 C44.85669501 43.78582625 42.03068047 44.02542843 38.8125 43.9375 C34.97802661 43.5583591 34.97802661 43.5583591 33 46 C31.515 46.495 31.515 46.495 30 47 C30 45.35 30 43.7 30 42 C30.33 42.66 30.66 43.32 31 44 C32.98 43.34 34.96 42.68 37 42 C37 37.38 37 32.76 37 28 C32.38 28 27.76 28 23 28 C23 25.69 23 23.38 23 21 C27.62 21 32.24 21 37 21 C37 16.38 37 11.76 37 7 C38.65 7 40.3 7 42 7 C42 11.62 42 16.24 42 21 C45.96 21.33 49.92 21.66 54 22 C53.505 20.02 53.505 20.02 53 18 C53.66 18 54.32 18 55 18 C55 17.34 55 16.68 55 16 C55.66 16 56.32 16 57 16 C56.0022242 13.00667261 55.2477975 12.05233685 53 10 C52.01 10.99 51.02 11.98 50 13 C50.495 13.99 50.495 13.99 51 15 C48.69 15.33 46.38 15.66 44 16 C44 12.37 44 8.74 44 5 C41.36 5 38.72 5 36 5 C36 8.96 36 12.92 36 17 C28.74 17 21.48 17 14 17 C14 21.95 14 26.9 14 32 C11.36 32 8.72 32 6 32 C6 34.31 6 36.62 6 39 C8.64 39 11.28 39 14 39 C13.979375 39.94875 13.95875 40.8975 13.9375 41.875 C13.77448174 44.90666283 13.77448174 44.90666283 15 47 C14.67 47 14.34 47 14 47 C14 49.64 14 52.28 14 55 C15.32 55 16.64 55 18 55 C19.75 56.5 19.75 56.5 21 58 C20.401875 57.835 19.80375 57.67 19.1875 57.5 C16.88655664 56.8885876 16.88655664 56.8885876 14 57 C14 59.31 14 61.62 14 64 C12.88625 64.0825 11.7725 64.165 10.625 64.25 C6.94246056 64.57873787 6.94246056 64.57873787 5.5625 67.0625 C5.376875 67.701875 5.19125 68.34125 5 69 C8.46849462 71.1181649 11.22299452 71.25798881 15.24975586 71.2746582 C16.5146434 71.28419022 17.77953094 71.29372223 19.08274841 71.30354309 C20.46011381 71.30328165 21.83747922 71.30234455 23.21484375 71.30078125 C24.63204575 71.30467005 26.04924659 71.30900511 27.46644592 71.31376648 C30.43461894 71.32122141 33.402673 71.32094274 36.37084961 71.31567383 C40.16838936 71.30988009 43.96544124 71.32681086 47.76290035 71.3500185 C50.68920218 71.36477373 53.61538699 71.36562514 56.54171944 71.36250877 C57.94151335 71.36302109 59.34131397 71.36824203 60.7410717 71.37832069 C62.70095959 71.390701 64.66094626 71.38194178 66.62084961 71.37231445 C67.73463486 71.37294388 68.8484201 71.3735733 69.99595642 71.3742218 C74.34910495 70.83193836 76.9405581 69.0594419 80 66 C80.31414609 63.34398729 80.31414609 63.34398729 80.2746582 60.20507812 C80.28419022 58.9904187 80.29372223 57.77575928 80.30354309 56.52429199 C80.30263168 55.20658813 80.30172028 53.88888428 80.30078125 52.53125 C80.30466664 51.17126331 80.30900098 49.81127784 80.31376648 48.45129395 C80.32123311 45.59981351 80.32093402 42.74845688 80.31567383 39.89697266 C80.30987462 36.23807726 80.32681825 32.57968732 80.3500185 28.92087555 C80.36473022 26.11221338 80.36563116 23.30367372 80.36250877 20.49497986 C80.36327371 18.48853328 80.37716638 16.48210573 80.39118958 14.47570801 C80.38184639 12.65371887 80.38184639 12.65371887 80.37231445 10.79492188 C80.37294388 9.72173706 80.3735733 8.64855225 80.3742218 7.54284668 C80.25072861 6.70370728 80.12723541 5.86456787 80 5 C79.01 4.34 78.02 3.68 77 3 Z " fill="#DAE1E3" transform="translate(0,0)"/>
<path d="M0 0 C1.65 0 3.3 0 5 0 C5 4.62 5 9.24 5 14 C8.63 14 12.26 14 16 14 C16 13.01 16 12.02 16 11 C16.66 11 17.32 11 18 11 C18 10.34 18 9.68 18 9 C18.66 9 19.32 9 20 9 C20.04125 8.443125 20.0825 7.88625 20.125 7.3125 C21.48977108 3.705605 23.91080176 2.26961504 27 0 C27.66 0 28.32 0 29 0 C29.495 1.485 29.495 1.485 30 3 C31.65 2.34 33.3 1.68 35 1 C35 4.29657856 34.25666731 6.16364428 33 9.1875 C32.62875 10.08855469 32.2575 10.98960938 31.875 11.91796875 C31.58625 12.60503906 31.2975 13.29210938 31 14 C33.475 16.475 33.475 16.475 36 19 C33.125 19.625 33.125 19.625 30 20 C29.34 19.34 28.68 18.68 28 18 C27.505 18.495 27.505 18.495 27 19 C24.32941149 19.14115161 21.67567762 19.04247107 19 19 C19 19.66 19 20.32 19 21 C14.71 21 10.42 21 6 21 C6.33 25.29 6.66 29.58 7 34 C8.65 34.66 10.3 35.32 12 36 C12 36.33 12 36.66 12 37 C11.08476563 37.04898438 10.16953125 37.09796875 9.2265625 37.1484375 C8.03804687 37.22320312 6.84953125 37.29796875 5.625 37.375 C3.84996094 37.47941406 3.84996094 37.47941406 2.0390625 37.5859375 C-1.10562319 37.70217346 -1.10562319 37.70217346 -3 40 C-4.64991582 40.70710678 -6.31562256 41.37943989 -8 42 C-8 39.36 -8 36.72 -8 34 C-7.34 34.33 -6.68 34.66 -6 35 C-6 35.66 -6 36.32 -6 37 C-4.35 36.34 -2.7 35.68 -1 35 C-0.67 30.38 -0.34 25.76 0 21 C-4.62 21 -9.24 21 -14 21 C-14 18.69 -14 16.38 -14 14 C-9.38 14 -4.76 14 0 14 C0 9.38 0 4.76 0 0 Z " fill="#F1F4F3" transform="translate(37,7)"/>
<path d="M0 0 C0.99 0.66 1.98 1.32 3 2 C3.38768005 4.52938843 3.38768005 4.52938843 3.40405273 7.76318359 C3.41673691 8.97138763 3.42942108 10.17959167 3.44248962 11.42440796 C3.43955399 12.73583771 3.43661835 14.04726746 3.43359375 15.3984375 C3.43815349 16.75363426 3.44345844 18.10882871 3.44947815 19.46401978 C3.45842234 22.30716328 3.45597268 25.15002612 3.44604492 27.99316406 C3.43456958 31.63409649 3.45473627 35.27405699 3.48396206 38.91486168 C3.50232654 41.71505884 3.50203096 44.51502338 3.49632454 47.31526566 C3.49609678 49.30944193 3.51300132 51.3035963 3.53013611 53.29769897 C3.51606468 55.11946152 3.51606468 55.11946152 3.50170898 56.97802734 C3.50154282 58.04677094 3.50137665 59.11551453 3.50120544 60.21664429 C2.87489754 63.69473438 1.75165432 64.84817731 -1 67 C-4.27791352 68.09263784 -6.70127944 68.13350055 -10.15209961 68.14526367 C-11.42029037 68.15164352 -12.68848114 68.15802338 -13.99510193 68.16459656 C-15.38084882 68.16612521 -16.76659621 68.16723919 -18.15234375 68.16796875 C-19.57336969 68.17118226 -20.99439529 68.1745464 -22.41542053 68.17805481 C-25.39373542 68.1840419 -28.37202131 68.18589512 -31.3503418 68.18530273 C-35.16471111 68.18520109 -38.97889436 68.19885731 -42.79321957 68.21607494 C-45.7280411 68.22719854 -48.6628177 68.22922184 -51.59765816 68.22869301 C-53.00385746 68.22987243 -54.41005796 68.23429209 -55.8162365 68.24202538 C-57.7836352 68.2518327 -59.75108848 68.24768104 -61.71850586 68.24291992 C-62.83752792 68.24434494 -63.95654999 68.24576996 -65.10948181 68.24723816 C-67.9455965 68.00465336 -69.59665588 67.47246835 -72 66 C-71.34 64.68 -70.68 63.36 -70 62 C-69.07058594 62.16371094 -68.14117187 62.32742187 -67.18359375 62.49609375 C-62.15270771 63.21479176 -57.13383491 63.10756313 -52.0625 63.0625 C-50.6074707 63.05573242 -50.6074707 63.05573242 -49.12304688 63.04882812 C-46.7486324 63.0371315 -44.37434979 63.02074086 -42 63 C-41.67 62.01 -41.34 61.02 -41 60 C-38 59 -38 59 -35.3125 60.3125 C-34.549375 60.869375 -33.78625 61.42625 -33 62 C-33 62.66 -33 63.32 -33 64 C-29.10360004 63.88981327 -25.20813907 63.75925522 -21.3125 63.625 C-20.20970703 63.5940625 -19.10691406 63.563125 -17.97070312 63.53125 C-16.90400391 63.49257812 -15.83730469 63.45390625 -14.73828125 63.4140625 C-13.75899658 63.3826416 -12.77971191 63.3512207 -11.77075195 63.31884766 C-8.84160218 62.98177218 -6.63454501 62.31391621 -4 61 C-2.41769192 57.83538385 -2.75842187 54.40920633 -2.68359375 50.9296875 C-2.6524221 49.73534592 -2.6524221 49.73534592 -2.62062073 48.51687622 C-2.55515851 45.96967315 -2.49625585 43.42236575 -2.4375 40.875 C-2.3943116 39.14972873 -2.35069721 37.42446807 -2.30664062 35.69921875 C-2.19948055 31.46625315 -2.09820377 27.23318247 -2 23 C-3.485 22.505 -3.485 22.505 -5 22 C-4.01 21.505 -4.01 21.505 -3 21 C-3.05220703 19.10314453 -3.05220703 19.10314453 -3.10546875 17.16796875 C-3.13360677 15.50782577 -3.16090691 13.84766844 -3.1875 12.1875 C-3.21263672 11.35412109 -3.23777344 10.52074219 -3.26367188 9.66210938 C-3.27333984 8.85966797 -3.28300781 8.05722656 -3.29296875 7.23046875 C-3.3086792 6.49207764 -3.32438965 5.75368652 -3.34057617 4.99291992 C-2.91074167 2.47769478 -1.92536938 1.60558484 0 0 Z " fill="#414B4F" transform="translate(77,3)"/>
<path d="M0 0 C2.64 0 5.28 0 8 0 C8 3.63 8 7.26 8 11 C11.465 10.505 11.465 10.505 15 10 C14.505 8.515 14.505 8.515 14 7 C15.32 6.34 16.64 5.68 18 5 C20 8 20 8 21 11 C20.34 11 19.68 11 19 11 C19 11.66 19 12.32 19 13 C18.34 13 17.68 13 17 13 C17.495 14.98 17.495 14.98 18 17 C14.04 16.67 10.08 16.34 6 16 C6 11.38 6 6.76 6 2 C4.35 2 2.7 2 1 2 C1 6.62 1 11.24 1 16 C-3.62 16 -8.24 16 -13 16 C-13 18.31 -13 20.62 -13 23 C-8.38 23 -3.76 23 1 23 C1 27.62 1 32.24 1 37 C-0.90318884 34.14521674 -1.4619099 32.58058692 -2.125 29.3125 C-2.29257812 28.50425781 -2.46015625 27.69601563 -2.6328125 26.86328125 C-2.75398438 26.24839844 -2.87515625 25.63351563 -3 25 C-2.95875 25.94875 -2.9175 26.8975 -2.875 27.875 C-3 31 -3 31 -5 33 C-5.99 33 -6.98 33 -8 33 C-8.495 32.505 -8.495 32.505 -9 32 C-9.103125 32.61875 -9.20625 33.2375 -9.3125 33.875 C-10 36 -10 36 -13 38 C-17 33.25 -17 33.25 -17 31 C-17.66 31 -18.32 31 -19 31 C-19 30.34 -19 29.68 -19 29 C-19.66 29 -20.32 29 -21 29 C-21 29.99 -21 30.98 -21 32 C-20.01 32 -19.02 32 -18 32 C-16.61328125 33.75 -16.61328125 33.75 -15.3125 36 C-14.65701172 37.11375 -14.65701172 37.11375 -13.98828125 38.25 C-13.49908203 39.11625 -13.49908203 39.11625 -13 40 C-14.32 41.32 -15.64 42.64 -17 44 C-19.5 42.375 -19.5 42.375 -22 40 C-22.3125 36.75 -22.3125 36.75 -22 34 C-24.64 34 -27.28 34 -30 34 C-30 31.69 -30 29.38 -30 27 C-27.36 27 -24.72 27 -22 27 C-22 22.05 -22 17.1 -22 12 C-14.74 12 -7.48 12 0 12 C0 8.04 0 4.08 0 0 Z " fill="#16608F" transform="translate(36,5)"/>
<path d="M0 0 C2.97 0 5.94 0 9 0 C9 1.98 9 3.96 9 6 C10.299375 5.979375 11.59875 5.95875 12.9375 5.9375 C14.29165633 5.91600546 15.64756083 5.92851801 17 6 C18 7 18 7 18.0625 10.0625 C18.041875 11.031875 18.02125 12.00125 18 13 C15.03 13 12.06 13 9 13 C9.12375 14.60875 9.12375 14.60875 9.25 16.25 C9 20 9 20 7 22.4375 C6.01 23.2109375 6.01 23.2109375 5 24 C6.32 23.34 7.64 22.68 9 22 C9 24.64 9 27.28 9 30 C4.05 31.485 4.05 31.485 -1 33 C-2.81115956 31.18884044 -2.38199448 28.38721773 -2.5625 25.9375 C-2.64628906 24.83277344 -2.73007812 23.72804688 -2.81640625 22.58984375 C-2.87699219 21.73519531 -2.93757813 20.88054688 -3 20 C-3.66 20 -4.32 20 -5 20 C-4.67 18.35 -4.34 16.7 -4 15 C-1.525 16.98 -1.525 16.98 1 19 C1.66 17.68 2.32 16.36 3 15 C2.01 15.66 1.02 16.32 0 17 C-0.556875 16.21625 -1.11375 15.4325 -1.6875 14.625 C-4.07668565 11.91295142 -5.60073413 11.03866457 -9 10 C-9 8.68 -9 7.36 -9 6 C-9.33 6.99 -9.66 7.98 -10 9 C-10.66 9 -11.32 9 -12 9 C-12 9.66 -12 10.32 -12 11 C-11.34 11.33 -10.68 11.66 -10 12 C-10.33 12.99 -10.66 13.98 -11 15 C-10.34 14.67 -9.68 14.34 -9 14 C-9 13.34 -9 12.68 -9 12 C-7.68 12.33 -6.36 12.66 -5 13 C-5.33 14.65 -5.66 16.3 -6 18 C-8.31 17.01 -10.62 16.02 -13 15 C-13 10.71 -13 6.42 -13 2 C-8.71 2 -4.42 2 0 2 C0 1.34 0 0.68 0 0 Z " fill="#4A808B" transform="translate(56,26)"/>
<path d="M0 0 C1.07314453 0.00322266 2.14628906 0.00644531 3.25195312 0.00976562 C4.37150391 0.01814453 5.49105469 0.02652344 6.64453125 0.03515625 C8.34125977 0.04192383 8.34125977 0.04192383 10.07226562 0.04882812 C12.86721001 0.06062114 15.66212724 0.07855668 18.45703125 0.09765625 C18.45703125 4.05765625 18.45703125 8.01765625 18.45703125 12.09765625 C11.19703125 12.09765625 3.93703125 12.09765625 -3.54296875 12.09765625 C-3.54296875 17.04765625 -3.54296875 21.99765625 -3.54296875 27.09765625 C-5.85296875 27.09765625 -8.16296875 27.09765625 -10.54296875 27.09765625 C-10.60095999 23.32688736 -10.63656181 19.55623291 -10.66796875 15.78515625 C-10.68472656 14.71330078 -10.70148437 13.64144531 -10.71875 12.53710938 C-10.72519531 11.50908203 -10.73164063 10.48105469 -10.73828125 9.421875 C-10.74875488 8.47401123 -10.75922852 7.52614746 -10.77001953 6.54956055 C-10.54296875 4.09765625 -10.54296875 4.09765625 -8.54296875 1.09765625 C-5.42453625 0.05817875 -3.26821289 -0.01729213 0 0 Z " fill="#A9B5B8" transform="translate(17.54296875,4.90234375)"/>
<path d="M0 0 C0.66 0.33 1.32 0.66 2 1 C2.6328125 2.92578125 2.6328125 2.92578125 3.125 5.3125 C3.29257812 6.09238281 3.46015625 6.87226562 3.6328125 7.67578125 C4 10 4 10 4 14 C2.34385343 14.38218767 0.67542976 14.71395102 -1 15 C-1.33 14.67 -1.66 14.34 -2 14 C-3.05774516 19.2887258 -3.9607533 24.94305768 -2.3125 30.1875 C-0.47137483 32.73000619 1.75521774 34.81429096 4 37 C4 37.33 4 37.66 4 38 C0.37506666 38.05787784 -3.24974857 38.0935542 -6.875 38.125 C-7.90753906 38.14175781 -8.94007812 38.15851563 -10.00390625 38.17578125 C-11.48310547 38.18544922 -11.48310547 38.18544922 -12.9921875 38.1953125 C-14.35899658 38.21102295 -14.35899658 38.21102295 -15.75341797 38.22705078 C-18 38 -18 38 -20 36 C-18.02 35.505 -18.02 35.505 -16 35 C-16.66 35 -17.32 35 -18 35 C-18 32.69 -18 30.38 -18 28 C-17.030625 28.165 -16.06125 28.33 -15.0625 28.5 C-13.04016429 28.85992293 -13.04016429 28.85992293 -11 29 C-12.2488427 27.4166747 -12.2488427 27.4166747 -14 26 C-15.32 26 -16.64 26 -18 26 C-18 23.36 -18 20.72 -18 18 C-16.02 18.33 -14.04 18.66 -12 19 C-11.34 17.68 -10.68 16.36 -10 15 C-10.66 14.21625 -11.32 13.4325 -12 12.625 C-14 10 -14 10 -14 8 C-14.99 8 -15.98 8 -17 8 C-17 7.01 -17 6.02 -17 5 C-16.34 5 -15.68 5 -15 5 C-15 5.66 -15 6.32 -15 7 C-14.34 7 -13.68 7 -13 7 C-11.61061923 8.96147874 -10.2739589 10.96166576 -9 13 C-8.01 12.34 -7.02 11.68 -6 11 C-6.33 8.36 -6.66 5.72 -7 3 C-4 6.75 -4 6.75 -4 9 C-2.68 8.34 -1.36 7.68 0 7 C0 4.69 0 2.38 0 0 Z " fill="#96CE9F" transform="translate(32,29)"/>
<path d="M0 0 C0.99 0.99 1.98 1.98 3 3 C5.05363606 3.3606631 5.05363606 3.3606631 7.1875 3.1875 C8.445625 3.125625 9.70375 3.06375 11 3 C11.0246501 8.10863896 11.04283607 13.21724359 11.05493164 18.32592773 C11.05997204 20.06519168 11.0668043 21.80445136 11.07543945 23.54370117 C11.08751792 26.03825937 11.09323108 28.53276173 11.09765625 31.02734375 C11.10281754 31.80963852 11.10797882 32.59193329 11.11329651 33.39793396 C11.11349226 35.26567114 11.06199694 37.13329204 11 39 C10.67 39.33 10.34 39.66 10 40 C10.99 40.66 11.98 41.32 13 42 C6.03220597 43.32719886 -0.92988911 43.08825381 -8 43 C-8.33 42.34 -8.66 41.68 -9 41 C-6.36 41 -3.72 41 -1 41 C-1 39.02 -1 37.04 -1 35 C-1.99 34.67 -2.98 34.34 -4 34 C-3.34 34 -2.68 34 -2 34 C-1.67 33.01 -1.34 32.02 -1 31 C-1 31.66 -1 32.32 -1 33 C-0.34 33 0.32 33 1 33 C0.67 30.69 0.34 28.38 0 26 C-1.65 26.66 -3.3 27.32 -5 28 C-3.7934375 26.9790625 -3.7934375 26.9790625 -2.5625 25.9375 C0.42288711 22.51522698 0.73781251 20.4571874 1 16 C3.97 16 6.94 16 10 16 C9.67 14.02 9.34 12.04 9 10 C6.36 9.67 3.72 9.34 1 9 C0.67 6.03 0.34 3.06 0 0 Z " fill="#A8B5B7" transform="translate(64,23)"/>
<path d="M0 0 C2.03144641 0.93446535 4.03533587 1.93224776 6 3 C6 3.66 6 4.32 6 5 C16.56 4.67 27.12 4.34 38 4 C37.01 5.32 36.02 6.64 35 8 C35 8.33 35 8.66 35 9 C26.72453358 9.04635203 18.44912145 9.08188373 10.17355728 9.10362434 C6.33082746 9.11405904 2.4881865 9.12821245 -1.35449219 9.15087891 C-5.06328453 9.17261857 -8.77199144 9.18457099 -12.48084259 9.18975449 C-13.89542231 9.19344823 -15.30999739 9.2006612 -16.72454071 9.21146011 C-18.70661352 9.2259891 -20.6887724 9.22681704 -22.67089844 9.22705078 C-23.79896912 9.231492 -24.92703979 9.23593323 -26.08929443 9.24050903 C-28.9404054 9.00492425 -30.58701141 8.48261061 -33 7 C-32.34 5.68 -31.68 4.36 -31 3 C-30.07058594 3.16371094 -29.14117187 3.32742187 -28.18359375 3.49609375 C-23.15270771 4.21479176 -18.13383491 4.10756313 -13.0625 4.0625 C-11.6074707 4.05573242 -11.6074707 4.05573242 -10.12304688 4.04882812 C-7.7486324 4.0371315 -5.37434979 4.02074086 -3 4 C-2.67 3.01 -2.34 2.02 -2 1 C-1.34 0.67 -0.68 0.34 0 0 Z " fill="#343C3B" transform="translate(38,62)"/>
<path d="M0 0 C2.97 0 5.94 0 9 0 C5.25 3 5.25 3 3 3 C2.93051924 11.16233476 2.87719882 19.32454617 2.84456348 27.48710346 C2.8289009 31.2772344 2.80765222 35.06716316 2.77368164 38.85717773 C2.7411087 42.51410601 2.72315145 46.1708397 2.71536827 49.82790184 C2.70982099 51.22378796 2.6989885 52.61966331 2.68280983 54.01546669 C2.66106571 55.9689459 2.65977485 57.92262051 2.65942383 59.8762207 C2.65276199 60.9887471 2.64610016 62.1012735 2.63923645 63.24751282 C2.77541016 65.999707 2.77541016 65.999707 4.33378601 67.82023621 C7.77414379 70.25618355 11.01596655 70.14075763 15.08862305 70.17700195 C16.34390305 70.18983719 17.59918304 70.20267242 18.89250183 70.21589661 C20.26557011 70.2240663 21.63864287 70.23150959 23.01171875 70.23828125 C23.70506632 70.24235678 24.39841389 70.2464323 25.11277199 70.25063133 C28.78538335 70.27147928 32.45795753 70.28578432 36.13061523 70.29516602 C39.90890883 70.30620507 43.68660937 70.34057866 47.46469402 70.38033772 C50.3825229 70.40659153 53.30021261 70.41486573 56.21814919 70.41844749 C57.60991211 70.42329389 59.00166964 70.434852 60.39331627 70.45348549 C68.4033582 70.55403723 74.14266062 70.30240427 81 66 C81.33 66 81.66 66 82 66 C82 67.98 82 69.96 82 72 C54.94 72 27.88 72 0 72 C0 48.24 0 24.48 0 0 Z " fill="#F4F7F7" transform="translate(0,0)"/>
<path d="M0 0 C4.62663327 0.11844608 9.25306042 0.24270772 13.87939453 0.37231445 C15.45259374 0.41557338 17.02583717 0.45725474 18.59912109 0.49731445 C20.86309115 0.55523662 23.12684051 0.61886714 25.390625 0.68359375 C26.09181458 0.70030624 26.79300415 0.71701874 27.51544189 0.73423767 C34.49260561 0.94496559 34.49260561 0.94496559 37 2 C38.25433458 5.76300374 38.10695422 9.27210909 38.0625 13.1875 C38.05798828 13.93708984 38.05347656 14.68667969 38.04882812 15.45898438 C38.03706354 17.30602383 38.01912865 19.15302213 38 21 C32.25 19.25 32.25 19.25 30 17 C31.65 13.04 33.3 9.08 35 5 C33.35 5.33 31.7 5.66 30 6 C29.67 7.32 29.34 8.64 29 10 C27.875 5.25 27.875 5.25 29 3 C28.44570312 3.433125 27.89140625 3.86625 27.3203125 4.3125 C26.23363281 5.1478125 26.23363281 5.1478125 25.125 6 C24.40570313 6.556875 23.68640625 7.11375 22.9453125 7.6875 C21 9 21 9 19 9 C18.67 9.66 18.34 10.32 18 11 C17.34 9.68 16.68 8.36 16 7 C15.34 7.66 14.68 8.32 14 9 C14 9.66 14 10.32 14 11 C11.69 11.33 9.38 11.66 7 12 C7 8.37 7 4.74 7 1 C4.69 1 2.38 1 0 1 C0 0.67 0 0.34 0 0 Z " fill="#AAB3B6" transform="translate(37,4)"/>
<path d="M0 0 C0.33 0.99 0.66 1.98 1 3 C2.65 2.34 4.3 1.68 6 1 C6 4.29657856 5.25666731 6.16364428 4 9.1875 C3.62875 10.08855469 3.2575 10.98960938 2.875 11.91796875 C2.58625 12.60503906 2.2975 13.29210938 2 14 C3.65 15.65 5.3 17.3 7 19 C4.125 19.625 4.125 19.625 1 20 C0.34 19.34 -0.32 18.68 -1 18 C-1.33 18.33 -1.66 18.66 -2 19 C-3.51928038 19.07179964 -5.04167482 19.08392007 -6.5625 19.0625 C-7.38878906 19.05347656 -8.21507812 19.04445313 -9.06640625 19.03515625 C-10.02353516 19.01775391 -10.02353516 19.01775391 -11 19 C-12.76462683 15.91190305 -13 14.76687864 -13 11 C-12.34 11 -11.68 11 -11 11 C-11 10.34 -11 9.68 -11 9 C-10.34 9 -9.68 9 -9 9 C-8.95875 8.443125 -8.9175 7.88625 -8.875 7.3125 C-7.51963902 3.73047455 -4.03008154 0 0 0 Z " fill="#EEF0F0" transform="translate(66,7)"/>
<path d="M0 0 C0 21.78 0 43.56 0 66 C-0.99 66 -1.98 66 -3 66 C-3 45.87 -3 25.74 -3 5 C-5.9421942 4.77102171 -5.9421942 4.77102171 -8.0625 6.0625 C-8.701875 6.371875 -9.34125 6.68125 -10 7 C-10.66 6.67 -11.32 6.34 -12 6 C-13.88472859 5.84655791 -15.77427874 5.75040429 -17.6640625 5.68359375 C-19.34628906 5.62075195 -19.34628906 5.62075195 -21.0625 5.55664062 C-22.238125 5.51732422 -23.41375 5.47800781 -24.625 5.4375 C-25.80835938 5.39431641 -26.99171875 5.35113281 -28.2109375 5.30664062 C-31.14050328 5.20032574 -34.07015588 5.09829358 -37 5 C-37 4.67 -37 4.34 -37 4 C-31.06 4 -25.12 4 -19 4 C-19 3.01 -19 2.02 -19 1 C-13.32745403 -1.83627298 -6.3420992 0 0 0 Z " fill="#D5D9DB" transform="translate(82,0)"/>
<path d="M0 0 C2.64 0 5.28 0 8 0 C8 3.63 8 7.26 8 11 C11.465 10.505 11.465 10.505 15 10 C14.67 9.01 14.34 8.02 14 7 C15.32 6.34 16.64 5.68 18 5 C20 8 20 8 21 11 C20.34 11 19.68 11 19 11 C19 11.66 19 12.32 19 13 C18.34 13 17.68 13 17 13 C17.33 14.32 17.66 15.64 18 17 C14.04 16.67 10.08 16.34 6 16 C6 11.38 6 6.76 6 2 C4.35 2 2.7 2 1 2 C1 6.62 1 11.24 1 16 C-3.62 16 -8.24 16 -13 16 C-13 18.31 -13 20.62 -13 23 C-8.38 23 -3.76 23 1 23 C1 27.62 1 32.24 1 37 C-1.62895146 33.05657281 -2.05927998 29.63640581 -3 25 C-6.63 24.67 -10.26 24.34 -14 24 C-14 20.7 -14 17.4 -14 14 C-9.38 14 -4.76 14 0 14 C0 9.38 0 4.76 0 0 Z " fill="#142B33" transform="translate(36,5)"/>
<path d="M0 0 C2.31 0 4.62 0 7 0 C7.309375 1.11375 7.61875 2.2275 7.9375 3.375 C8.82326483 6.7945155 8.82326483 6.7945155 10 9 C9.34 9 8.68 9 8 9 C8 11.31 8 13.62 8 16 C8.66 16 9.32 16 10 16 C10.66 15.34 11.32 14.68 12 14 C12 15.32 12 16.64 12 18 C13.98 18.66 15.96 19.32 18 20 C15 21 15 21 12.8125 20.0625 C11.9153125 19.5365625 11.9153125 19.5365625 11 19 C10.67 19.99 10.34 20.98 10 22 C10 20.68 10 19.36 10 18 C9.01 18 8.02 18 7 18 C7 20.31 7 22.62 7 25 C5.02 25 3.04 25 1 25 C-0.27861615 22.44276771 -0.11336609 20.63262898 -0.09765625 17.7734375 C-0.09443359 16.7421875 -0.09121094 15.7109375 -0.08789062 14.6484375 C-0.07951172 13.56820312 -0.07113281 12.48796875 -0.0625 11.375 C-0.05798828 10.28703125 -0.05347656 9.1990625 -0.04882812 8.078125 C-0.03701776 5.38536211 -0.02054778 2.69270812 0 0 Z " fill="#AAB7AA" transform="translate(7,39)"/>
<path d="M0 0 C1.65 0 3.3 0 5 0 C5.02686553 1.97909398 5.04633375 3.95828971 5.0625 5.9375 C5.07410156 7.03964844 5.08570312 8.14179687 5.09765625 9.27734375 C5 12 5 12 4 13 C4.99 13.66 5.98 14.32 7 15 C0.03220597 16.32719886 -6.92988911 16.08825381 -14 16 C-14.33 15.34 -14.66 14.68 -15 14 C-12.36 14 -9.72 14 -7 14 C-7 12.02 -7 10.04 -7 8 C-7.99 7.67 -8.98 7.34 -10 7 C-9.34 7 -8.68 7 -8 7 C-7.67 6.01 -7.34 5.02 -7 4 C-7 4.66 -7 5.32 -7 6 C-6.34 6 -5.68 6 -5 6 C-4.34 4.68 -3.68 3.36 -3 2 C-2.01 2 -1.02 2 0 2 C0 1.34 0 0.68 0 0 Z " fill="#AAB5B5" transform="translate(70,50)"/>
<path d="M0 0 C0.99 0 1.98 0 3 0 C4.03714522 3.11143567 4.20031861 5.49468096 4.31640625 8.76171875 C4.37924805 10.43911133 4.37924805 10.43911133 4.44335938 12.15039062 C4.48267578 13.31763672 4.52199219 14.48488281 4.5625 15.6875 C4.60568359 16.86634766 4.64886719 18.04519531 4.69335938 19.25976562 C4.79951176 22.17305883 4.90156242 25.08643757 5 28 C7.64 28 10.28 28 13 28 C13.33 27.34 13.66 26.68 14 26 C14 26.66 14 27.32 14 28 C16.31 28 18.62 28 21 28 C21 28.33 21 28.66 21 29 C19.80761719 29.03738281 18.61523438 29.07476562 17.38671875 29.11328125 C15.820281 29.17894032 14.25387616 29.24538768 12.6875 29.3125 C11.90181641 29.33505859 11.11613281 29.35761719 10.30664062 29.38085938 C9.1706543 29.4340332 9.1706543 29.4340332 8.01171875 29.48828125 C6.96697388 29.52755737 6.96697388 29.52755737 5.90112305 29.56762695 C3.50649641 30.11223768 2.56727453 31.15829162 1 33 C-1.41212469 29.38181297 -1.24528253 27.69908089 -1.23046875 23.3984375 C-1.22853516 22.10421875 -1.22660156 20.81 -1.22460938 19.4765625 C-1.21840576 18.80399414 -1.21220215 18.13142578 -1.20581055 17.43847656 C-1.18750467 15.37552609 -1.18530128 13.31302337 -1.18554688 11.25 C-1.14014333 1.14014333 -1.14014333 1.14014333 0 0 Z " fill="#DAE4E2" transform="translate(3,36)"/>
<path d="M0 0 C4.62 0 9.24 0 14 0 C14 3.86695678 12.58090029 6.5088452 11 10 C9.35 10 7.7 10 6 10 C5.67 9.34 5.34 8.68 5 8 C4.401875 8.99 3.80375 9.98 3.1875 11 C2.465625 11.99 1.74375 12.98 1 14 C0.01 14 -0.98 14 -2 14 C-2.33 12.02 -2.66 10.04 -3 8 C-3.99 7.67 -4.98 7.34 -6 7 C-5.1875 5.0625 -5.1875 5.0625 -4 3 C-3.01 2.67 -2.02 2.34 -1 2 C-0.67 1.34 -0.34 0.68 0 0 Z " fill="#1A1C1D" transform="translate(35,44)"/>
<path d="M0 0 C1.9375 1.125 1.9375 1.125 4 3 C4.75 6.1875 4.75 6.1875 5 9 C5.99 9 6.98 9 8 9 C8.268125 8.21625 8.53625 7.4325 8.8125 6.625 C10 4 10 4 13 2 C15 5 15 5 16 8 C16.99 8.33 17.98 8.66 19 9 C18.34 9 17.68 9 17 9 C17.99 10.98 18.98 12.96 20 15 C19 16 19 16 16.6875 16.1875 C14 16 14 16 11.9375 14.9375 C11.298125 14.628125 10.65875 14.31875 10 14 C9.360625 14.226875 8.72125 14.45375 8.0625 14.6875 C7.381875 14.790625 6.70125 14.89375 6 15 C3.48814606 12.8386373 1.49018781 10.98037561 0 8 C-0.13415472 5.3276379 -0.04318541 2.67749512 0 0 Z " fill="#F1F1ED" transform="translate(28,49)"/>
<path d="M0 0 C3.68266103 0.59950296 7.34543185 1.24758891 11 2 C11.33 1.34 11.66 0.68 12 0 C12.99 0 13.98 0 15 0 C15.3403125 0.8353125 15.3403125 0.8353125 15.6875 1.6875 C17.35496699 4.62541803 19.5902023 6.65361802 22 9 C22 9.33 22 9.66 22 10 C18.37506666 10.05787784 14.75025143 10.0935542 11.125 10.125 C10.09246094 10.14175781 9.05992188 10.15851563 7.99609375 10.17578125 C7.00996094 10.18222656 6.02382813 10.18867187 5.0078125 10.1953125 C3.64100342 10.21102295 3.64100342 10.21102295 2.24658203 10.22705078 C0 10 0 10 -2 8 C-0.68 7.67 0.64 7.34 2 7 C1.34 7 0.68 7 0 7 C0 4.69 0 2.38 0 0 Z " fill="#9CA671" transform="translate(14,57)"/>
<path d="M0 0 C0.99 0.66 1.98 1.32 3 2 C3.34057617 5.07275391 3.34057617 5.07275391 3.29296875 8.9765625 C3.28872391 9.66181 3.28447906 10.3470575 3.28010559 11.05307007 C3.26329753 13.24411129 3.22564405 15.43423632 3.1875 17.625 C3.17245579 19.10936173 3.15876693 20.59373785 3.14648438 22.078125 C3.1133879 25.71904833 3.06159207 29.35943478 3 33 C2.01 33.495 2.01 33.495 1 34 C0.34 33.67 -0.32 33.34 -1 33 C-1.02505615 32.23333008 -1.0501123 31.46666016 -1.07592773 30.67675781 C-1.19201423 27.20100717 -1.31468366 23.72551908 -1.4375 20.25 C-1.47681641 19.0434375 -1.51613281 17.836875 -1.55664062 16.59375 C-1.59853516 15.43359375 -1.64042969 14.2734375 -1.68359375 13.078125 C-1.72025146 12.00981445 -1.75690918 10.94150391 -1.79467773 9.84082031 C-1.90514941 7.06766615 -1.90514941 7.06766615 -2.60961914 4.72949219 C-2.73844482 4.15875977 -2.86727051 3.58802734 -3 3 C-1.5625 1.25 -1.5625 1.25 0 0 Z " fill="#333C3F" transform="translate(77,3)"/>
<path d="M0 0 C0.92941406 0.15339844 1.85882813 0.30679688 2.81640625 0.46484375 C7.83606589 1.18193798 12.87587934 1.35145498 17.9375 1.5625 C18.90751953 1.60568359 19.87753906 1.64886719 20.87695312 1.69335938 C23.25118601 1.79862093 25.62550921 1.90075707 28 2 C27.34 2.66 26.68 3.32 26 4 C27.98 3.67 29.96 3.34 32 3 C32 3.99 32 4.98 32 6 C27.80079763 6.04953687 23.60175131 6.08578411 19.40234375 6.10986328 C17.97457922 6.11990427 16.54683517 6.13353981 15.11914062 6.15087891 C13.06375059 6.17521152 11.00863308 6.18650202 8.953125 6.1953125 C7.09929199 6.21102295 7.09929199 6.21102295 5.20800781 6.22705078 C2.18340629 6.01298081 0.53014349 5.59653159 -2 4 C-1.34 2.68 -0.68 1.36 0 0 Z " fill="#333C3D" transform="translate(7,65)"/>
<path d="M0 0 C2.97 0 5.94 0 9 0 C9 1.65 9 3.3 9 5 C9.99 5 10.98 5 12 5 C13.38671875 6.75 13.38671875 6.75 14.6875 9 C15.34298828 10.11375 15.34298828 10.11375 16.01171875 11.25 C16.33785156 11.8275 16.66398437 12.405 17 13 C15.68 14.32 14.36 15.64 13 17 C10.5 15.375 10.5 15.375 8 13 C7.6875 9.75 7.6875 9.75 8 7 C5.36 7 2.72 7 0 7 C0 4.69 0 2.38 0 0 Z " fill="#3B6F6C" transform="translate(6,32)"/>
<path d="M0 0 C3.48749314 2.78999451 6.50157221 5.25235831 9 9 C10.32 8.34 11.64 7.68 13 7 C13 9.64 13 12.28 13 15 C8.05 16.485 8.05 16.485 3 18 C1.18884044 16.18884044 1.61800552 13.38721773 1.4375 10.9375 C1.35371094 9.83277344 1.26992188 8.72804688 1.18359375 7.58984375 C1.09271484 6.30787109 1.09271484 6.30787109 1 5 C0.34 5 -0.32 5 -1 5 C-0.67 3.35 -0.34 1.7 0 0 Z " fill="#89BA9E" transform="translate(52,41)"/>
<path d="M0 0 C3.3 0 6.6 0 10 0 C10.625 3.375 10.625 3.375 11 7 C10.34 7.66 9.68 8.32 9 9 C8.01 9 7.02 9 6 9 C5.67 8.67 5.34 8.34 5 8 C4.8453125 8.928125 4.8453125 8.928125 4.6875 9.875 C4 12 4 12 1 14 C-3 9.25 -3 9.25 -3 7 C-3.66 7 -4.32 7 -5 7 C-5 6.34 -5 5.68 -5 5 C-3.02 5 -1.04 5 1 5 C0.67 3.35 0.34 1.7 0 0 Z " fill="#0F6489" transform="translate(22,29)"/>
<path d="M0 0 C2.97 0 5.94 0 9 0 C9 1.98 9 3.96 9 6 C6.03 6 3.06 6 0 6 C0.061875 7.093125 0.12375 8.18625 0.1875 9.3125 C0 13 0 13 -1.25 15 C-3 16 -3 16 -5.1875 15.6875 C-5.785625 15.460625 -6.38375 15.23375 -7 15 C-7.375 12.9375 -7.375 12.9375 -7 10 C-5.593326 8.06951947 -4.06101167 6.37344482 -2.41015625 4.6484375 C-0.77172622 2.9424992 -0.77172622 2.9424992 0 0 Z " fill="#3F6D60" transform="translate(65,33)"/>
<path d="M0 0 C0.33 0 0.66 0 1 0 C1 2.31 1 4.62 1 7 C2.1446875 7.0928125 2.1446875 7.0928125 3.3125 7.1875 C6 8 6 8 7.8125 10.5625 C8.204375 11.366875 8.59625 12.17125 9 13 C10.65 12.01 12.3 11.02 14 10 C12.79618552 12.49361571 11.54571278 14.68143083 10 17 C8.35 15.68 6.7 14.36 5 13 C4.67 14.32 4.34 15.64 4 17 C4.66 17 5.32 17 6 17 C7.26237731 19.52475462 7.09856404 21.31200466 7.0625 24.125 C7.05347656 25.03507812 7.04445313 25.94515625 7.03515625 26.8828125 C7.02355469 27.58148438 7.01195312 28.28015625 7 29 C5.02 28.34 3.04 27.68 1 27 C0.957279 25.33388095 0.95936168 23.66617115 1 22 C1.33 21.67 1.66 21.34 2 21 C2.20768229 19.52603261 2.36716017 18.0450874 2.5 16.5625 C2.89041096 12.21917808 2.89041096 12.21917808 4 10 C2.68 9.67 1.36 9.34 0 9 C0.33 9.99 0.66 10.98 1 12 C0.01 12 -0.98 12 -2 12 C-2.33 10.02 -2.66 8.04 -3 6 C-2.34 6 -1.68 6 -1 6 C-0.67 4.02 -0.34 2.04 0 0 Z " fill="#9ED298" transform="translate(47,29)"/>
<path d="M0 0 C1.25433458 3.76300374 1.10695422 7.27210909 1.0625 11.1875 C1.05798828 11.93708984 1.05347656 12.68667969 1.04882812 13.45898438 C1.03706354 15.30602383 1.01912865 17.15302213 1 19 C-4.75 17.25 -4.75 17.25 -7 15 C-5.35 11.04 -3.7 7.08 -2 3 C-3.65 3.33 -5.3 3.66 -7 4 C-7.33 5.32 -7.66 6.64 -8 8 C-8.33 5.36 -8.66 2.72 -9 0 C-5.93109813 -1.53445094 -3.29905734 -0.54984289 0 0 Z " fill="#A5AEB0" transform="translate(74,6)"/>
<path d="M0 0 C1.98 0 3.96 0 6 0 C6.33 2.97 6.66 5.94 7 9 C9.31 9 11.62 9 14 9 C13.67 8.01 13.34 7.02 13 6 C14.32 5.34 15.64 4.68 17 4 C19 7 19 7 20 10 C19.34 10 18.68 10 18 10 C18 10.66 18 11.32 18 12 C17.34 12 16.68 12 16 12 C16.33 13.32 16.66 14.64 17 16 C13.04 15.67 9.08 15.34 5 15 C5 10.38 5 5.76 5 1 C3.35 1 1.7 1 0 1 C0 0.67 0 0.34 0 0 Z " fill="#42535C" transform="translate(37,6)"/>
<path d="M0 0 C2.97 0 5.94 0 9 0 C5.25 3 5.25 3 3 3 C1.99413578 6.36008489 1.84614266 9.46229917 1.79467773 12.96191406 C1.77473251 14.16285706 1.75478729 15.36380005 1.73423767 16.60113525 C1.71752518 17.89291687 1.70081268 19.18469849 1.68359375 20.515625 C1.66301037 21.85512921 1.64201354 23.19462713 1.62062073 24.53411865 C1.56554291 28.05215341 1.51607094 31.5702454 1.46777344 35.08837891 C1.41745375 38.68136664 1.36182244 42.27427173 1.30664062 45.8671875 C1.199234 52.91138655 1.09775051 59.9556598 1 67 C0.67 67 0.34 67 0 67 C0 44.89 0 22.78 0 0 Z " fill="#FBFDFD" transform="translate(0,0)"/>
<path d="M0 0 C2.31 0 4.62 0 7 0 C7.309375 1.11375 7.61875 2.2275 7.9375 3.375 C8.82326483 6.7945155 8.82326483 6.7945155 10 9 C9.34 9 8.68 9 8 9 C7.67 10.98 7.34 12.96 7 15 C6.34 14.67 5.68 14.34 5 14 C5 13.01 5 12.02 5 11 C3.35 11 1.7 11 0 11 C0 7.37 0 3.74 0 0 Z " fill="#A4B7B7" transform="translate(7,39)"/>
<path d="M0 0 C0.33 0 0.66 0 1 0 C1.33 4.29 1.66 8.58 2 13 C3.65 13.66 5.3 14.32 7 15 C7 15.33 7 15.66 7 16 C6.08476563 16.04898438 5.16953125 16.09796875 4.2265625 16.1484375 C3.03804687 16.22320312 1.84953125 16.29796875 0.625 16.375 C-0.55835938 16.44460937 -1.74171875 16.51421875 -2.9609375 16.5859375 C-6.10562319 16.70217346 -6.10562319 16.70217346 -8 19 C-9.64991582 19.70710678 -11.31562256 20.37943989 -13 21 C-13 18.36 -13 15.72 -13 13 C-12.01 13.495 -12.01 13.495 -11 14 C-11 14.66 -11 15.32 -11 16 C-8.46255685 15.45291273 -8.46255685 15.45291273 -6 14 C-5.10169161 10.94727535 -5.10169161 10.94727535 -5 8 C-4.67 9.32 -4.34 10.64 -4 12 C-2.68 12 -1.36 12 0 12 C0 8.04 0 4.08 0 0 Z " fill="#CCD0CF" transform="translate(42,28)"/>
<path d="M0 0 C1.32 0 2.64 0 4 0 C4.06058594 0.66386719 4.12117188 1.32773437 4.18359375 2.01171875 C4.79863507 8.54908081 4.79863507 8.54908081 6 15 C4.68 15 3.36 15 2 15 C2 14.34 2 13.68 2 13 C1.01 12.67 0.02 12.34 -1 12 C-1.2226746 10.56465159 -1.42761906 9.12654475 -1.625 7.6875 C-1.74101562 6.88699219 -1.85703125 6.08648437 -1.9765625 5.26171875 C-2 3 -2 3 0 0 Z " fill="#0367A8" transform="translate(17,19)"/>
<path d="M0 0 C2.03144641 0.93446535 4.03533587 1.93224776 6 3 C6 3.66 6 4.32 6 5 C6.99 5 7.98 5 9 5 C8.34 6.32 7.68 7.64 7 9 C5.02 9 3.04 9 1 9 C0.67 8.34 0.34 7.68 0 7 C-1.65 7.33 -3.3 7.66 -5 8 C-5.33 7.34 -5.66 6.68 -6 6 C-5.01 5.34 -4.02 4.68 -3 4 C-2.67 3.01 -2.34 2.02 -2 1 C-1.34 0.67 -0.68 0.34 0 0 Z " fill="#323D3F" transform="translate(38,62)"/>
<path d="M0 0 C0.33 0 0.66 0 1 0 C1.33 8.25 1.66 16.5 2 25 C4.64 25 7.28 25 10 25 C10.33 24.34 10.66 23.68 11 23 C11 23.66 11 24.32 11 25 C13.31 25 15.62 25 18 25 C18 25.33 18 25.66 18 26 C16.80761719 26.03738281 15.61523438 26.07476562 14.38671875 26.11328125 C12.820281 26.17894032 11.25387616 26.24538768 9.6875 26.3125 C8.90181641 26.33505859 8.11613281 26.35761719 7.30664062 26.38085938 C6.1706543 26.4340332 6.1706543 26.4340332 5.01171875 26.48828125 C3.96697388 26.52755737 3.96697388 26.52755737 2.90112305 26.56762695 C0.50649641 27.11223768 -0.43272547 28.15829162 -2 30 C-4 27 -4 27 -4 23 C-2.68 23 -1.36 23 0 23 C0 15.41 0 7.82 0 0 Z " fill="#D0DABB" transform="translate(6,39)"/>
<path d="M0 0 C0.99 0.33 1.98 0.66 3 1 C1 3 1 3 -1.3828125 3.1953125 C-2.28773437 3.17210937 -3.19265625 3.14890625 -4.125 3.125 C-5.49011719 3.09792969 -5.49011719 3.09792969 -6.8828125 3.0703125 C-7.58148438 3.04710937 -8.28015625 3.02390625 -9 3 C-9.33 4.98 -9.66 6.96 -10 9 C-10.66 9 -11.32 9 -12 9 C-12 9.66 -12 10.32 -12 11 C-11.34 11.33 -10.68 11.66 -10 12 C-10.33 12.99 -10.66 13.98 -11 15 C-10.34 14.67 -9.68 14.34 -9 14 C-9 13.34 -9 12.68 -9 12 C-7.68 12.33 -6.36 12.66 -5 13 C-5.33 14.65 -5.66 16.3 -6 18 C-8.31 17.01 -10.62 16.02 -13 15 C-13 10.71 -13 6.42 -13 2 C-8.71 2 -4.42 2 0 2 C0 1.34 0 0.68 0 0 Z " fill="#11353F" transform="translate(56,26)"/>
<path d="M0 0 C0.33 0 0.66 0 1 0 C1 3.96 1 7.92 1 12 C-6.26 12 -13.52 12 -21 12 C-21 16.95 -21 21.9 -21 27 C-21.99 27 -22.98 27 -24 27 C-23.85975781 24.52039864 -23.7130815 22.04147598 -23.5625 19.5625 C-23.52318359 18.85544922 -23.48386719 18.14839844 -23.44335938 17.41992188 C-23.11328125 12.11328125 -23.11328125 12.11328125 -22 11 C-20.36527118 10.91299658 -18.72685945 10.89298937 -17.08984375 10.90234375 C-16.10048828 10.90556641 -15.11113281 10.90878906 -14.09179688 10.91210938 C-13.05087891 10.92048828 -12.00996094 10.92886719 -10.9375 10.9375 C-9.37032227 10.94426758 -9.37032227 10.94426758 -7.77148438 10.95117188 C-5.18096546 10.96300073 -2.59047578 10.98093681 0 11 C0 7.37 0 3.74 0 0 Z " fill="#85A7B9" transform="translate(35,5)"/>
<path d="M0 0 C0.33 0.66 0.66 1.32 1 2 C1.66 2 2.32 2 3 2 C3 1.34 3 0.68 3 0 C4.65 0 6.3 0 8 0 C8 0.66 8 1.32 8 2 C6.02 2.33 4.04 2.66 2 3 C2 5.31 2 7.62 2 10 C6.29 10 10.58 10 15 10 C15 10.33 15 10.66 15 11 C8.03220597 12.32719886 1.07011089 12.08825381 -6 12 C-6.33 11.34 -6.66 10.68 -7 10 C-4.36 10 -1.72 10 1 10 C1 8.02 1 6.04 1 4 C0.01 3.67 -0.98 3.34 -2 3 C-1.34 3 -0.68 3 0 3 C0 2.01 0 1.02 0 0 Z " fill="#BFD695" transform="translate(62,54)"/>
<path d="M0 0 C0.99 0.99 1.98 1.98 3 3 C5.05363606 3.3606631 5.05363606 3.3606631 7.1875 3.1875 C8.445625 3.125625 9.70375 3.06375 11 3 C11 5.31 11 7.62 11 10 C7.7 9.67 4.4 9.34 1 9 C0.67 6.03 0.34 3.06 0 0 Z " fill="#A0ADB3" transform="translate(64,23)"/>
<path d="M0 0 C3.9492568 0.55105909 7.34920174 1.38935371 11 3 C11 4.32 11 5.64 11 7 C7.37 7 3.74 7 0 7 C0 4.69 0 2.38 0 0 Z " fill="#296E65" transform="translate(14,57)"/>
<path d="M0 0 C0.66 0 1.32 0 2 0 C1.33333333 3.33333333 0.66666667 6.66666667 0 10 C0.99 10.33 1.98 10.66 3 11 C2.34 13.31 1.68 15.62 1 18 C-2.09654061 15.21311345 -3.65385205 12.93489402 -5 9 C-5.33 8.34 -5.66 7.68 -6 7 C-5.38125 6.95875 -4.7625 6.9175 -4.125 6.875 C-3.42375 6.58625 -2.7225 6.2975 -2 6 C-0.6954344 3.00384054 -0.6954344 3.00384054 0 0 Z " fill="#9E9F9F" transform="translate(48,46)"/>
<path d="M0 0 C1.2065625 0.0309375 1.2065625 0.0309375 2.4375 0.0625 C2.7675 1.3825 3.0975 2.7025 3.4375 4.0625 C2.4475 4.3925 1.4575 4.7225 0.4375 5.0625 C0.4375 5.7225 0.4375 6.3825 0.4375 7.0625 C-1.2125 6.7325 -2.8625 6.4025 -4.5625 6.0625 C-4.5625 7.3825 -4.5625 8.7025 -4.5625 10.0625 C-1.5925 10.0625 1.3775 10.0625 4.4375 10.0625 C4.1075 10.7225 3.7775 11.3825 3.4375 12.0625 C0.4675 12.0625 -2.5025 12.0625 -5.5625 12.0625 C-5.5625 9.7525 -5.5625 7.4425 -5.5625 5.0625 C-3.5825 4.7325 -1.6025 4.4025 0.4375 4.0625 C0.4375 3.4025 0.4375 2.7425 0.4375 2.0625 C-0.8825 1.7325 -2.2025 1.4025 -3.5625 1.0625 C-2.5625 0.0625 -2.5625 0.0625 0 0 Z " fill="#A3B18F" transform="translate(69.5625,51.9375)"/>
<path d="M0 0 C1.2065625 0.0309375 1.2065625 0.0309375 2.4375 0.0625 C1.98824862 4.89195236 0.89013456 7.60986544 -2.5625 11.0625 C-3.5525 11.0625 -4.5425 11.0625 -5.5625 11.0625 C-5.25467504 9.41578588 -4.94110766 7.77014424 -4.625 6.125 C-4.45097656 5.20847656 -4.27695312 4.29195312 -4.09765625 3.34765625 C-3.35353878 0.17022035 -3.31733379 0.08091058 0 0 Z " fill="#0566A1" transform="translate(61.5625,27.9375)"/>
<path d="M0 0 C3 1 3 1 4 3 C4.06996014 4.70702735 4.08440154 6.41668003 4.0625 8.125 C4.05347656 9.03507812 4.04445313 9.94515625 4.03515625 10.8828125 C4.02355469 11.58148438 4.01195312 12.28015625 4 13 C2.02 12.34 0.04 11.68 -2 11 C-2.24042276 6.91281305 -1.42258812 3.82320557 0 0 Z " fill="#F2F8F8" transform="translate(50,45)"/>
<path d="M0 0 C2.97 0 5.94 0 9 0 C8.01 0.33 7.02 0.66 6 1 C5.67 3.31 5.34 5.62 5 8 C4.01 8.33 3.02 8.66 2 9 C0.4375 7.875 0.4375 7.875 -1 6 C-0.6875 2.8125 -0.6875 2.8125 0 0 Z " fill="#16677E" transform="translate(48,29)"/>
<path d="M0 0 C6.57142857 5.14285714 6.57142857 5.14285714 8 9 C5.525 10.485 5.525 10.485 3 12 C2.34 9.69 1.68 7.38 1 5 C0.34 5 -0.32 5 -1 5 C-0.67 3.35 -0.34 1.7 0 0 Z " fill="#2B695B" transform="translate(52,41)"/>
<path d="M0 0 C0.66 0.33 1.32 0.66 2 1 C2.6328125 2.92578125 2.6328125 2.92578125 3.125 5.3125 C3.29257812 6.09238281 3.46015625 6.87226562 3.6328125 7.67578125 C4 10 4 10 4 14 C2.35 14.33 0.7 14.66 -1 15 C-1.66 13.35 -2.32 11.7 -3 10 C-2.01 9.34 -1.02 8.68 0 8 C0.36297936 6.02252878 0.36297936 6.02252878 0.1875 3.875 C0.125625 2.59625 0.06375 1.3175 0 0 Z " fill="#91BB86" transform="translate(32,29)"/>
<path d="M0 0 C0.33 1.65 0.66 3.3 1 5 C0.01 5.33 -0.98 5.66 -2 6 C-2.33 6.99 -2.66 7.98 -3 9 C-2.67 7.02 -2.34 5.04 -2 3 C-3.65 3.33 -5.3 3.66 -7 4 C-7.33 5.32 -7.66 6.64 -8 8 C-8.33 5.36 -8.66 2.72 -9 0 C-5.93109813 -1.53445094 -3.29905734 -0.54984289 0 0 Z " fill="#989DA0" transform="translate(74,6)"/>
<path d="M0 0 C0.99 0 1.98 0 3 0 C6 5.75 6 5.75 6 8 C4.00045254 8.04254356 1.99958364 8.04080783 0 8 C-0.33 7.67 -0.66 7.34 -1 7 C-0.71269945 4.66055264 -0.38063221 2.3260857 0 0 Z " fill="#D0D641" transform="translate(26,57)"/>
<path d="M0 0 C2.31 0 4.62 0 7 0 C7.042721 1.66611905 7.04063832 3.33382885 7 5 C6 6 6 6 2.9375 6.0625 C1.4834375 6.0315625 1.4834375 6.0315625 0 6 C0 4.02 0 2.04 0 0 Z " fill="#1D191A" transform="translate(7,33)"/>
<path d="M0 0 C0 1.98 0 3.96 0 6 C-2.64 6 -5.28 6 -8 6 C-8 4.68 -8 3.36 -8 2 C-5.09399739 0.74335022 -3.20395416 0 0 0 Z " fill="#2C6B50" transform="translate(63,58)"/>
<path d="M0 0 C2.64 0 5.28 0 8 0 C8 1.65 8 3.3 8 5 C5.36 5 2.72 5 0 5 C0 3.35 0 1.7 0 0 Z " fill="#191D19" transform="translate(65,33)"/>
<path d="M0 0 C0.66 0.66 1.32 1.32 2 2 C0.35 5.3 -1.3 8.6 -3 12 C-3.66 12 -4.32 12 -5 12 C-4.93999894 10.3739713 -4.8512115 8.74898451 -4.75 7.125 C-4.70359375 6.22007813 -4.6571875 5.31515625 -4.609375 4.3828125 C-4 2 -4 2 -1.953125 0.6796875 C-1.30859375 0.45539062 -0.6640625 0.23109375 0 0 Z " fill="#F0F2F4" transform="translate(71,8)"/>
<path d="M0 0 C0.33 0 0.66 0 1 0 C0.67 2.64 0.34 5.28 0 8 C3.33537489 6.88820837 4.63707344 5.52588702 7 3 C5.64978174 7.41889613 3.73884332 9.34345343 0 12 C-1.5625 10.75 -1.5625 10.75 -3 9 C-2.6828368 5.828368 -1.22070812 2.92969949 0 0 Z " fill="#246E6D" transform="translate(56,31)"/>
<path d="M0 0 C3.34243648 1.89404734 3.97997149 2.94091591 5.25 6.6875 C5.4975 7.780625 5.745 8.87375 6 10 C5.34 10.66 4.68 11.32 4 12 C2 10.5 2 10.5 0 8 C-0.35800135 5.24128373 -0.18660165 2.79902476 0 0 Z " fill="#F6F9F3" transform="translate(28,49)"/>
<path d="M0 0 C2.5 1.6875 2.5 1.6875 5 4 C5.3125 6.75 5.3125 6.75 5 9 C3.02 8.34 1.04 7.68 -1 7 C-1.04254356 5.00045254 -1.04080783 2.99958364 -1 1 C-0.67 0.67 -0.34 0.34 0 0 Z " fill="#0D6591" transform="translate(15,38)"/>
<path d="M0 0 C1.32 0 2.64 0 4 0 C4.66 0.99 5.32 1.98 6 3 C4.6875 5.5 4.6875 5.5 3 8 C2.01 8 1.02 8 0 8 C-0.38063221 5.6739143 -0.71269945 3.33944736 -1 1 C-0.67 0.67 -0.34 0.34 0 0 Z " fill="#262929" transform="translate(33,50)"/>
<path d="M0 0 C2.64 1.65 5.28 3.3 8 5 C7.01 5.495 7.01 5.495 6 6 C6 6.66 6 7.32 6 8 C3.69 7.34 1.38 6.68 -1 6 C-0.67 4.02 -0.34 2.04 0 0 Z " fill="#246B5D" transform="translate(20,51)"/>
<path d="M0 0 C2.2477975 2.05233685 3.0022242 3.00667261 4 6 C3.34 6 2.68 6 2 6 C1.67 6.66 1.34 7.32 1 8 C0.01 7.67 -0.98 7.34 -2 7 C-4.33299825 6.96045766 -6.66708189 6.95598268 -9 7 C-9 6.67 -9 6.34 -9 6 C-5.535 5.505 -5.535 5.505 -2 5 C-2.33 4.01 -2.66 3.02 -3 2 C-2.01 1.34 -1.02 0.68 0 0 Z " fill="#738088" transform="translate(53,10)"/>
<path d="M0 0 C2.64 0 5.28 0 8 0 C4.97727468 3.25524265 1.74281699 5.61820737 -2 8 C-2.33 7.01 -2.66 6.02 -3 5 C-2.34 4.34 -1.68 3.68 -1 3 C-0.67 2.01 -0.34 1.02 0 0 Z " fill="#A4ACAD" transform="translate(59,5)"/>
<path d="M0 0 C0.99 0 1.98 0 3 0 C3.33 1.65 3.66 3.3 4 5 C1.69 5.66 -0.62 6.32 -3 7 C-3.33 6.34 -3.66 5.68 -4 5 C-2.1875 2.5 -2.1875 2.5 0 0 Z " fill="#256964" transform="translate(58,52)"/>
<path d="M0 0 C1.65 0.99 3.3 1.98 5 3 C4.67 4.65 4.34 6.3 4 8 C2.68 8 1.36 8 0 8 C0 5.36 0 2.72 0 0 Z " fill="#266D6C" transform="translate(14,47)"/>
<path d="M0 0 C0.061875 0.928125 0.061875 0.928125 0.125 1.875 C0.41375 2.57625 0.7025 3.2775 1 4 C3.99615946 5.3045656 3.99615946 5.3045656 7 6 C4 7 4 7 1.8125 6.0625 C1.214375 5.711875 0.61625 5.36125 0 5 C-0.33 5.99 -0.66 6.98 -1 8 C-1 6.68 -1 5.36 -1 4 C-3.31 3.67 -5.62 3.34 -8 3 C-8 2.34 -8 1.68 -8 1 C-5.69 1.33 -3.38 1.66 -1 2 C-0.67 1.34 -0.34 0.68 0 0 Z " fill="#A4D39E" transform="translate(18,53)"/>
<path d="M0 0 C0.99 0.33 1.98 0.66 3 1 C3.33 1.99 3.66 2.98 4 4 C3.21625 4.103125 2.4325 4.20625 1.625 4.3125 C-1.33045181 4.77595022 -1.33045181 4.77595022 -3 8 C-3.99 7.67 -4.98 7.34 -6 7 C-5.1875 5.0625 -5.1875 5.0625 -4 3 C-3.01 2.67 -2.02 2.34 -1 2 C-0.67 1.34 -0.34 0.68 0 0 Z " fill="#1E1F22" transform="translate(35,44)"/>
<path d="M0 0 C0.99 0.33 1.98 0.66 3 1 C3 1.66 3 2.32 3 3 C3.66 3 4.32 3 5 3 C4.67 4.65 4.34 6.3 4 8 C-0.875 5.25 -0.875 5.25 -2 3 C-1.34 2.01 -0.68 1.02 0 0 Z " fill="#276B63" transform="translate(23,46)"/>
<path d="M0 0 C0.66 0 1.32 0 2 0 C2 2.31 2 4.62 2 7 C0.35 7.33 -1.3 7.66 -3 8 C-2.45276317 4.62537285 -1.9451 2.91765 0 0 Z " fill="#1B6889" transform="translate(63,39)"/>
<path d="M0 0 C2.97 0 5.94 0 9 0 C9 1.98 9 3.96 9 6 C8.01 6.495 8.01 6.495 7 7 C6.773125 6.195625 6.54625 5.39125 6.3125 4.5625 C5.879375 3.716875 5.44625 2.87125 5 2 C2.45224694 1.10613836 2.45224694 1.10613836 0 1 C0 0.67 0 0.34 0 0 Z " fill="#F5F6F6" transform="translate(73,0)"/>
<path d="M0 0 C0.33 0 0.66 0 1 0 C0.938125 1.093125 0.87625 2.18625 0.8125 3.3125 C0.64402086 6.92126083 0.64402086 6.92126083 2.5 8.9375 C2.995 9.288125 3.49 9.63875 4 10 C2.68 9.67 1.36 9.34 0 9 C0.33 9.99 0.66 10.98 1 12 C0.01 12 -0.98 12 -2 12 C-2.33 10.02 -2.66 8.04 -3 6 C-2.34 6 -1.68 6 -1 6 C-0.67 4.02 -0.34 2.04 0 0 Z " fill="#8AC190" transform="translate(47,29)"/>
<path d="M0 0 C2.625 1.3125 2.625 1.3125 5 3 C5 3.66 5 4.32 5 5 C2.69 5 0.38 5 -2 5 C-2 3.68 -2 2.36 -2 1 C-1.34 0.67 -0.68 0.34 0 0 Z " fill="#1C1E1D" transform="translate(38,62)"/>
<path d="M0 0 C1.42944945 2.35438733 2.08661261 3.48032433 1.625 6.25 C1.41875 6.8275 1.2125 7.405 1 8 C-0.32 8.33 -1.64 8.66 -3 9 C-3.66 7.02 -4.32 5.04 -5 3 C-4.34 3 -3.68 3 -3 3 C-3 3.99 -3 4.98 -3 6 C-2.01 6 -1.02 6 0 6 C0 4.02 0 2.04 0 0 Z " fill="#256C67" transform="translate(31,29)"/>
<path d="M0 0 C3.37503669 1.1858237 5.64722731 2.27573689 8 5 C6.02 5.33 4.04 5.66 2 6 C1.34 4.02 0.68 2.04 0 0 Z " fill="#F8FAFA" transform="translate(65,21)"/>
<path d="M0 0 C0.66 0 1.32 0 2 0 C2.625 2.875 2.625 2.875 3 6 C2.34 6.66 1.68 7.32 1 8 C0.01 6.68 -0.98 5.36 -2 4 C-1.34 2.68 -0.68 1.36 0 0 Z " fill="#2A685E" transform="translate(27,41)"/>
<path d="M0 0 C2.31 0 4.62 0 7 0 C7 1.65 7 3.3 7 5 C6.34 5 5.68 5 5 5 C4.67 4.34 4.34 3.68 4 3 C2.68 3.33 1.36 3.66 0 4 C0 2.68 0 1.36 0 0 Z " fill="#A2B6BD" transform="translate(7,39)"/>
<path d="M0 0 C0.66 0 1.32 0 2 0 C2.33 1.65 2.66 3.3 3 5 C0.6875 5.6875 0.6875 5.6875 -2 6 C-3.8125 4.5625 -3.8125 4.5625 -5 3 C-3.35 2.67 -1.7 2.34 0 2 C0 1.34 0 0.68 0 0 Z " fill="#111415" transform="translate(38,46)"/>
<path d="M0 0 C0.66 0.99 1.32 1.98 2 3 C0.75 4.5625 0.75 4.5625 -1 6 C-3.1875 5.6875 -3.1875 5.6875 -5 5 C-4.01 4.34 -3.02 3.68 -2 3 C-3.65 2.67 -5.3 2.34 -7 2 C-7 1.67 -7 1.34 -7 1 C-3.535 0.505 -3.535 0.505 0 0 Z " fill="#454C3B" transform="translate(77,64)"/>
<path d="M0 0 C0.66 0.66 1.32 1.32 2 2 C1.34 3.98 0.68 5.96 0 8 C-1.37562854 6.71034824 -2.70766393 5.37310707 -4 4 C-4 3.34 -4 2.68 -4 2 C-2.68 2 -1.36 2 0 2 C0 1.34 0 0.68 0 0 Z " fill="#252318" transform="translate(49,56)"/>
<path d="M0 0 C1.32 0.99 2.64 1.98 4 3 C3.67 4.32 3.34 5.64 3 7 C2.34 7 1.68 7 1 7 C1 6.34 1 5.68 1 5 C0.34 5 -0.32 5 -1 5 C-0.67 3.35 -0.34 1.7 0 0 Z " fill="#437D6B" transform="translate(52,41)"/>
<path d="M0 0 C0.99 0.495 0.99 0.495 2 1 C1.67 1.99 1.34 2.98 1 4 C1.66 3.67 2.32 3.34 3 3 C3 2.34 3 1.68 3 1 C4.32 1.33 5.64 1.66 7 2 C6.67 3.65 6.34 5.3 6 7 C4.02 6.34 2.04 5.68 0 5 C0 3.35 0 1.7 0 0 Z " fill="#316855" transform="translate(44,37)"/>
<path d="M0 0 C1.98 0 3.96 0 6 0 C6 1.65 6 3.3 6 5 C5.01 5 4.02 5 3 5 C3 4.01 3 3.02 3 2 C1.68 2.33 0.36 2.66 -1 3 C-0.67 2.01 -0.34 1.02 0 0 Z " fill="#0D6895" transform="translate(25,30)"/>
<path d="M0 0 C1.32 0 2.64 0 4 0 C4 2.64 4 5.28 4 8 C3.01 7.67 2.02 7.34 1 7 C0.67 4.69 0.34 2.38 0 0 Z " fill="#ADB4BA" transform="translate(71,17)"/>
<path d="M0 0 C2.31 0.33 4.62 0.66 7 1 C7 1.33 7 1.66 7 2 C5.02 2 3.04 2 1 2 C1 2.99 1 3.98 1 5 C0.01 4.67 -0.98 4.34 -2 4 C-1.34 2.68 -0.68 1.36 0 0 Z " fill="#484D36" transform="translate(7,65)"/>
<path d="M0 0 C0.99 0.33 1.98 0.66 3 1 C3 1.99 3 2.98 3 4 C-1.455 5.485 -1.455 5.485 -6 7 C-4.02 4.69 -2.04 2.38 0 0 Z " fill="#ADCCA1" transform="translate(65,44)"/>
<path d="M0 0 C0 1.65 0 3.3 0 5 C-0.99 5.33 -1.98 5.66 -3 6 C-3.66 4.35 -4.32 2.7 -5 1 C-2 0 -2 0 0 0 Z " fill="#2A6C5C" transform="translate(34,38)"/>
<path d="M0 0 C1.98 0.495 1.98 0.495 4 1 C4 2.65 4 4.3 4 6 C1.525 5.01 1.525 5.01 -1 4 C-0.67 2.68 -0.34 1.36 0 0 Z " fill="#999C9E" transform="translate(68,18)"/>
<path d="M0 0 C0.66 0 1.32 0 2 0 C2 1.32 2 2.64 2 4 C-0.64 4 -3.28 4 -6 4 C-6 3.34 -6 2.68 -6 2 C-4.02 2 -2.04 2 0 2 C0 1.34 0 0.68 0 0 Z " fill="#2D6745" transform="translate(23,60)"/>
<path d="M0 0 C2.31 0 4.62 0 7 0 C7.33 0.66 7.66 1.32 8 2 C4.37 2.33 0.74 2.66 -3 3 C-2.01 2.67 -1.02 2.34 0 2 C0 1.34 0 0.68 0 0 Z " fill="#B8C1C1" transform="translate(41,42)"/>
<path d="M0 0 C1.5625 1.75 1.5625 1.75 3 4 C2.875 6.125 2.875 6.125 2 8 C1.01 8.66 0.02 9.32 -1 10 C-1.33 9.01 -1.66 8.02 -2 7 C-1.01 7 -0.02 7 1 7 C0.67 4.69 0.34 2.38 0 0 Z " fill="#226C62" transform="translate(24,33)"/>
<path d="M0 0 C0.66 0 1.32 0 2 0 C2.042721 1.66611905 2.04063832 3.33382885 2 5 C1 6 1 6 -2.0625 6.0625 C-3.5165625 6.0315625 -3.5165625 6.0315625 -5 6 C-3.68 5.67 -2.36 5.34 -1 5 C-0.67 3.35 -0.34 1.7 0 0 Z " fill="#18262D" transform="translate(12,33)"/>
<path d="M0 0 C0.66 0 1.32 0 2 0 C1.34 2.64 0.68 5.28 0 8 C-0.66 8 -1.32 8 -2 8 C-1.125 1.125 -1.125 1.125 0 0 Z " fill="#FDFDFE" transform="translate(68,12)"/>
<path d="M0 0 C0.33 0 0.66 0 1 0 C1 2.64 1 5.28 1 8 C0.34 8 -0.32 8 -1 8 C-1.625 5.125 -1.625 5.125 -2 2 C-1.34 1.34 -0.68 0.68 0 0 Z " fill="#386E59" transform="translate(64,48)"/>
<path d="M0 0 C0.433125 0.474375 0.86625 0.94875 1.3125 1.4375 C3.02309613 3.23686957 3.02309613 3.23686957 6 4 C4.60804085 6.7839183 2.84424221 6.97898997 0 8 C0 5.36 0 2.72 0 0 Z " fill="#A8C4BC" transform="translate(29,41)"/>
<path d="M0 0 C1.98 0 3.96 0 6 0 C6 1.32 6 2.64 6 4 C5.34 4 4.68 4 4 4 C4 3.34 4 2.68 4 2 C2.35 2 0.7 2 -1 2 C-0.67 1.34 -0.34 0.68 0 0 Z " fill="#3B4027" transform="translate(74,62)"/>
</svg>
